<svg width="14" height="14" viewBox="0 0 14 14" fill="none" xmlns="http://www.w3.org/2000/svg">
<path fill-rule="evenodd" clip-rule="evenodd" d="M6.98589 0C7.79996 0 8.45988 0.636539 8.45988 1.42175V5.57818H12.526C13.3401 5.57818 14 6.21473 14 6.99993C14 7.78515 13.3401 8.42168 12.526 8.42168H8.45988V12.5783C8.45988 13.3635 7.79996 14 6.98589 14C6.17184 14 5.5119 13.3635 5.5119 12.5783V8.42168H1.47399C0.659921 8.42168 0 7.78515 0 6.99993C0 6.21473 0.659921 5.57818 1.47399 5.57818H5.5119V1.42175C5.5119 0.636539 6.17184 0 6.98589 0Z" fill="white"/>
</svg>
