<svg width="80" height="37" viewBox="0 0 80 37" fill="none" xmlns="http://www.w3.org/2000/svg">
<path fill-rule="evenodd" clip-rule="evenodd" d="M1.40668 11.2356L74.3799 1.46997L78.5784 25.9311L5.60518 35.6967L1.40668 11.2356ZM4.15415 12.7665L72.2789 3.64189L75.8274 24.3995L7.70268 33.5241L4.15064 12.7665" fill="white"/>
<path fill-rule="evenodd" clip-rule="evenodd" d="M26.9983 19.5972L32.9886 18.7401L34.779 29.1781L28.7887 30.0352L26.9983 19.5972ZM64.0997 14.4826C68.4212 13.8702 72.0049 14.6969 72.3421 16.7176C72.8052 19.3508 66.9385 21.003 64.2227 22.5359C67.2175 22.1074 70.3676 21.6478 73.361 21.2193C73.4849 22.0461 73.639 22.8418 73.7623 23.6379C68.5765 24.3727 63.3907 25.1075 58.2014 25.8422C57.3986 21.1598 67.6806 19.5048 67.3714 17.5747C67.248 17.0232 66.2292 16.656 64.6858 16.8702C63.3275 17.0541 62.0303 17.8806 62.2468 19.1052C60.6724 19.3197 59.1283 19.5338 57.5529 19.7787C57.028 16.7173 60.4549 15.0021 64.0983 14.483L64.0997 14.4826ZM34.6786 18.5241L36.4693 28.9343L53.8501 26.4544L53.4489 24.0051L42.1182 25.628L41.809 23.8522L47.7993 22.9947L47.4594 21.0354L41.5007 21.8928L41.1919 20.1783L52.5226 18.5865L52.0591 16.0453L34.6784 18.5251L34.6786 18.5241ZM7.16867 22.4122L8.9591 32.8538L15.1321 31.966L14.3915 27.7399L22.3564 26.607C25.0733 26.2397 27.1416 24.8312 26.7727 22.7188C26.4637 20.882 24.4261 19.9637 21.3094 20.3922L7.16797 22.4129L7.16867 22.4122ZM13.7739 24.096L18.3448 23.4529C19.2091 23.3306 19.734 23.606 19.8267 24.096C19.9193 24.6775 19.3637 25.0451 18.6227 25.1371L14.0553 25.7798L13.7774 24.096" fill="white"/>
<path fill-rule="evenodd" clip-rule="evenodd" d="M8.47565 13.326L11.4395 12.9282L15.4518 19.8474L12.6735 20.2146L11.8706 18.7757L9.36981 19.1123L9.09207 20.7045L6.96155 21.0105L8.47442 13.3249L8.47565 13.326ZM57.3118 6.7761L60.2754 6.3779L64.2877 13.3284L61.5089 13.696L60.7061 12.2571L58.2053 12.5938L57.9269 14.1856L55.7658 14.4613L57.3099 6.77559L57.3118 6.7761ZM58.8556 8.8881L58.485 10.9398L59.8745 10.7561L58.8556 8.8881ZM63.6409 5.91905L64.8758 13.2668L67.0678 12.9611L66.3269 8.58168L70.1565 12.5326L72.3175 12.2573L71.052 4.90958L68.8294 5.21574L69.4464 8.85999L66.2668 5.58434L63.6423 5.92143L63.6409 5.91905ZM51.1683 7.44921C53.5149 7.35779 54.3177 8.45993 54.9347 9.95979L52.5568 10.4496C52.31 9.65355 51.9399 9.16403 51.2294 9.16403C50.4885 9.16403 49.9632 9.89881 50.0872 11.276C50.2106 12.4393 50.766 13.4804 51.631 13.419C52.4338 13.3576 52.7732 12.9905 52.8041 12.0108L55.305 11.8275C55.1508 13.6029 53.9773 14.9499 51.6616 15.1028C49.2535 15.3171 47.3682 13.8172 47.2171 11.3993C47.1245 8.88876 48.9148 7.57387 51.1697 7.44844L51.1683 7.44921ZM33.9702 9.89881C35.3904 9.71502 36.7799 9.53128 38.2004 9.34767C40.5775 9.01105 41.9351 9.50093 42.2127 11.1238C42.3361 11.8889 41.7805 12.7156 40.9162 13.1442C41.6572 14.1545 42.3978 15.1649 43.1388 16.1752C42.1512 16.2976 41.1629 16.4199 40.1749 16.5731C39.6194 15.685 39.0327 14.7976 38.446 13.9402C38.1373 13.9705 37.7977 14.0017 37.4889 14.0626C37.6435 14.981 37.7977 15.93 37.9829 16.8794C37.0568 17.0016 36.1306 17.1241 35.2351 17.2466C34.8029 14.7977 34.4013 12.3481 33.9692 9.89889L33.9702 9.89881ZM36.996 11.0924C37.0577 11.5823 37.1502 12.0721 37.2428 12.5926C37.7368 12.5313 38.2617 12.4394 38.7866 12.3784C39.1569 12.317 39.5276 11.9495 39.4658 11.521C39.3731 10.9701 38.9409 10.8168 38.6015 10.8782C38.0766 10.9396 37.5205 11.0315 36.996 11.0924ZM25.8831 11.001L27.1486 18.3174L34.0033 17.399L33.6947 15.6539L29.5875 16.2047L29.4022 15.0414L32.7677 14.5819L32.5208 12.99L29.1248 13.4492L28.9395 12.4082L33.0783 11.857L32.7694 10.0509L25.8832 11.0003L25.8831 11.001ZM42.8001 8.70471L44.0351 16.0524L46.8444 15.6849L45.5789 8.33713L42.8001 8.70471ZM14.7667 12.4709L16.0017 19.7873L18.1013 19.5119L17.2061 14.3068L19.7993 19.268L21.5286 19.0535L22.2078 13.6045L23.103 18.841L25.7271 18.5041L24.4616 11.1877L20.7269 11.6776L20.2329 15.7504L18.2879 12.0155L14.7674 12.4751L14.7667 12.4709ZM10.0131 15.471L9.67343 17.4917L11.0321 17.308L10.0131 15.471Z" fill="white"/>
</svg>
