<svg width="14" height="16" viewBox="0 0 14 16" fill="none" xmlns="http://www.w3.org/2000/svg">
<path fill-rule="evenodd" clip-rule="evenodd" d="M3.02398 1.40503C3.94593 0.460374 5.26734 0 6.85711 0C8.44688 0 9.76828 0.460374 10.6903 1.40503C11.6102 2.34762 12.0558 3.69399 12.0558 5.31264C12.0558 5.98406 12.1523 6.38139 12.2657 6.63677C12.3757 6.88427 12.5189 7.03987 12.7043 7.2136C12.7286 7.23633 12.7551 7.26051 12.7832 7.28622C12.9568 7.44498 13.1941 7.66178 13.3723 7.95576C13.5943 8.32171 13.7143 8.77245 13.7143 9.38697C13.7143 10.1832 13.2829 10.7753 12.7176 11.1888C12.1651 11.593 11.445 11.8613 10.7266 12.0446C9.28323 12.413 7.65734 12.4846 6.85711 12.4846C6.05688 12.4846 4.43101 12.413 2.98766 12.0446C2.26923 11.8613 1.54911 11.593 0.996663 11.1888C0.431429 10.7752 0 10.1832 0 9.38697C0 8.77246 0.120034 8.32174 0.341931 7.95579C0.520194 7.66182 0.757383 7.44501 0.931086 7.28624C0.9592 7.26055 0.985657 7.23635 1.00992 7.21361C1.19535 7.03989 1.33853 6.88427 1.44848 6.63677C1.56192 6.38139 1.6584 5.98405 1.6584 5.31264C1.6584 3.69399 2.10402 2.34762 3.02398 1.40503ZM4.20201 14.3267C4.09182 14.0371 4.42039 13.7855 4.72848 13.819C5.60175 13.9141 6.37559 13.9376 6.85689 13.9376C7.33802 13.9376 8.1115 13.9141 8.98438 13.8191C9.29239 13.7856 9.62085 14.0371 9.51067 14.3267C9.30926 14.8562 8.96131 15.2922 8.4768 15.587C8.00095 15.8765 7.44325 16.0001 6.85634 16.0001C6.26944 16.0001 5.71174 15.8765 5.2359 15.587C4.75138 15.2922 4.40344 14.8562 4.20201 14.3267Z" fill="white"/>
</svg>
