<svg width="16" height="16" viewBox="0 0 16 16" fill="none" xmlns="http://www.w3.org/2000/svg">
<path fill-rule="evenodd" clip-rule="evenodd" d="M2.63997 0.263519C4.27047 0.0922617 5.97327 0 7.71429 0C9.45157 0 11.1244 0.0979303 12.7541 0.266432C13.9746 0.392633 14.9799 1.31598 15.156 2.55063C15.3294 3.76567 15.4286 5.03188 15.4286 6.32349C15.4286 7.6082 15.3198 8.85316 15.1499 10.0559C14.9734 11.3067 13.9575 12.2529 12.7146 12.3791C11.1454 12.5385 9.52499 12.6415 7.85032 12.6467C6.67831 13.9585 5.70736 14.6575 4.10226 15.3784C3.92544 15.4578 3.72042 15.4422 3.55769 15.3369C3.39496 15.2315 3.29671 15.051 3.29671 14.8571V12.3848L3.03997 12.3609L2.79109 12.3377C1.53266 12.2206 0.438762 11.2939 0.257205 9.98973C0.0919886 8.80292 0 7.58156 0 6.32349C0 5.02331 0.0918308 3.74288 0.269074 2.51542C0.445043 1.29678 1.43745 0.389822 2.63997 0.263519ZM4.21429 4.29265C4.21429 3.89817 4.53408 3.57837 4.92857 3.57837H10.5C10.8945 3.57837 11.2143 3.89817 11.2143 4.29265C11.2143 4.68714 10.8945 5.00694 10.5 5.00694H4.92857C4.53408 5.00694 4.21429 4.68714 4.21429 4.29265ZM4.21429 7.72122C4.21429 7.32674 4.53408 7.00694 4.92857 7.00694H9.14286C9.53735 7.00694 9.85714 7.32674 9.85714 7.72122C9.85714 8.11572 9.53735 8.43551 9.14286 8.43551H4.92857C4.53408 8.43551 4.21429 8.11572 4.21429 7.72122Z" fill="white"/>
</svg>
