<svg width="80" height="20" viewBox="0 0 80 20" fill="none" xmlns="http://www.w3.org/2000/svg">
<g clip-path="url(#clip0_1_1294)">
<path d="M11.0131 13.7215C9.11288 14.3207 8.59464 14.4241 7.38536 14.4241C5.26912 14.4241 3.51984 13.7835 2.15944 12.4817C0.69104 11.0764 0 9.44391 0 7.27417C0 3.12052 3.1744 0 7.40688 0C8.29216 0 8.9832 0.103429 9.93336 0.372001L11.0131 0.702599V5.86882C9.82536 4.85632 9.11288 4.52572 8.14104 4.52572C6.52152 4.52572 5.31224 5.68297 5.31224 7.19136C5.31224 8.74139 6.4784 9.83654 8.11944 9.83654C9.15608 9.83654 9.73912 9.58859 11.0131 8.65866V13.7215Z" fill="white"/>
<path d="M25.5243 14.1141H20.2794V9.2787H17.4821V14.1141H12.2371V0.330688H17.4821V4.91828H20.2794V0.330688H25.5243V14.1141Z" fill="white"/>
<path d="M39.5765 8.61741C39.5765 8.96863 39.5345 9.60913 39.3874 10.3738C39.2192 11.531 38.6098 12.5023 37.538 13.2668C36.4452 14.0727 34.9321 14.4448 32.8937 14.4448C30.1828 14.4448 28.0812 13.4322 27.0935 11.6963C26.7783 11.1383 26.6312 10.5804 26.5471 9.44383C26.5261 9.13378 26.505 8.86528 26.505 8.61734V0.33075H31.5486V8.18331C31.5486 9.4025 32.053 10.0018 33.0406 10.0018C33.6081 10.0018 34.1124 9.71256 34.3436 9.27861C34.4697 9.07191 34.5327 8.69991 34.5327 8.18331V0.33075H39.5763V8.61741H39.5765Z" fill="white"/>
<path d="M50.9924 13.7215C49.0954 14.3207 48.5779 14.4241 47.3707 14.4241C45.2581 14.4241 43.5119 13.7835 42.1536 12.4817C40.6877 11.0764 39.9978 9.44391 39.9978 7.27417C39.9978 3.12052 43.1669 0 47.3923 0C48.2761 0 48.966 0.103429 49.9145 0.372001L50.9924 0.702599V5.86882C49.8069 4.85632 49.0954 4.52572 48.1251 4.52572C46.5084 4.52572 45.301 5.68297 45.301 7.19136C45.301 8.74139 46.4653 9.83654 48.1037 9.83654C49.1384 9.83654 49.7206 9.58859 50.9923 8.65866V13.7215H50.9924Z" fill="white"/>
<path d="M52.2099 0.330688H57.1822V6.1581C58.2578 4.21592 59.3333 2.27365 60.4087 0.33147H65.9607C64.5124 2.57675 63.0642 4.82212 61.6159 7.0674L66.4018 14.1141H60.3728L57.1821 8.24527V14.1141H52.2098V0.330688H52.2099Z" fill="white"/>
<path d="M71.2666 0.330688L72.7042 3.96766L74.185 0.330688H80C78.3937 2.95399 76.7873 5.57729 75.1809 8.20043L72.6892 20L70.168 8.20043C68.5886 5.57721 67.0092 2.95399 65.4297 0.330688H71.2666Z" fill="white"/>
</g>
<defs>
<clipPath id="clip0_1_1294">
<rect width="80" height="20" fill="white"/>
</clipPath>
</defs>
</svg>
