<svg width="16" height="14" viewBox="0 0 16 14" fill="none" xmlns="http://www.w3.org/2000/svg">
<path fill-rule="evenodd" clip-rule="evenodd" d="M9.16175 0.568338C8.55669 -0.189446 7.44277 -0.189446 6.8377 0.568338C5.95603 1.67254 4.81579 3.47441 4.0532 5.54239L2.09536 3.73115C1.49904 3.17948 0.448725 3.39979 0.260535 4.29098C-0.207635 6.50802 0.0428096 8.91412 0.329741 10.5354C0.592047 12.0174 1.77695 13.1155 3.24069 13.3422C6.44882 13.8394 9.55121 13.8393 12.7593 13.3421C14.223 13.1154 15.4079 12.0173 15.6702 10.5353C15.9571 8.91401 16.2075 6.50788 15.7394 4.29081C15.5512 3.39963 14.5009 3.17932 13.9046 3.73098L11.9463 5.54261C11.1837 3.47453 10.0435 1.67258 9.16175 0.568338Z" fill="#A3A3A3"/>
</svg>
