<svg width="120" height="46" viewBox="0 0 120 46" fill="none" xmlns="http://www.w3.org/2000/svg">
<path d="M14.5706 8.82544H7.18368L0 45.9998H6.44111C14.5736 45.9998 23.3362 38.0072 25.3695 27.4125C27.4024 16.818 22.7027 8.82544 14.5706 8.82544ZM18.1719 27.7128C16.9994 34.7413 12.0424 40.1138 7.90849 40.1138H7.63737L12.5168 14.7113H12.7878C17.4891 14.7114 19.5242 19.6077 18.1719 27.7128Z" fill="white"/>
<path d="M86.4525 29.1473H94.3106L95.1915 24.5007H87.3334L89.5018 13.4723H97.1837L98.3798 8.82544H82.9519L75.7683 45.9998H93.5618L94.758 41.353H84.0804L86.4525 29.1473Z" fill="white"/>
<path d="M119.815 19.5441C120.966 13.5963 116.629 8.82544 110.123 8.82544H102.126L94.9431 45.9997H102.059L104.973 30.8822L110.934 45.9997H119.208C115.502 36.4034 112.292 28.8375 112.292 28.8375C116.291 26.7931 119.137 23.1995 119.815 19.5441ZM113.376 19.5441C112.766 22.8896 109.853 25.6779 106.193 25.6779H105.99L108.361 13.4723H108.565C112.225 13.4723 114.054 16.1985 113.376 19.5441Z" fill="white"/>
<path d="M75.8366 8.82563L77.526 0H75.7406C74.0746 6.5764 69.4323 8.82563 66.0778 8.82563H64.5873H62.2827H58.7386L53.385 17.4995L52.0297 8.82563H45.7708H44.8901H30.3429L23.1595 46H35.9683H38.4312H41.1186L48.641 33.7944L51.2368 46H58.6912L54.4691 24.1911L61.5272 13.4725H67.8398L61.5371 46H68.6529L74.9554 13.4725H81.3935L82.2744 8.82574L75.8366 8.82563ZM38.8951 41.3532H30.8409L33.2129 29.1476H40.1255L41.0066 24.5009H34.0939L36.2624 13.4725H44.2593L45.1841 10.6288L47.8717 27.1033L38.8951 41.3532Z" fill="white"/>
</svg>
