<svg width="22" height="22" viewBox="0 0 22 22" fill="none" xmlns="http://www.w3.org/2000/svg">
<path fill-rule="evenodd" clip-rule="evenodd" d="M11 0C7.61351 0 4.82913 0.955491 2.89231 2.89231C0.955491 4.82913 0 7.61351 0 11C0 14.3865 0.955491 17.1708 2.89231 19.1076C4.82913 21.0446 7.61351 22 11 22C14.3865 22 17.1708 21.0446 19.1076 19.1076C21.0446 17.1708 22 14.3865 22 11C22 7.61351 21.0446 4.82913 19.1076 2.89231C17.1708 0.955491 14.3865 0 11 0ZM1.96429 11C1.96429 7.97506 2.81201 5.75052 4.28126 4.28126C5.75052 2.81201 7.97506 1.96429 11 1.96429C14.0249 1.96429 16.2495 2.81201 17.7188 4.28126C19.1879 5.75052 20.0357 7.97506 20.0357 11C20.0357 14.0249 19.1879 16.2495 17.7188 17.7188C16.2495 19.1879 14.0249 20.0357 11 20.0357C7.97506 20.0357 5.75052 19.1879 4.28126 17.7188C2.81201 16.2495 1.96429 14.0249 1.96429 11ZM14.6957 5.99714C15.3883 6.0657 15.9344 6.61196 16.003 7.3045C16.2024 9.31951 15.492 11.3513 14.5054 13.1161L8.88385 7.49479C10.6487 6.50812 12.6806 5.79763 14.6957 5.99714ZM7.4952 8.88404L13.1172 14.5058C11.3521 15.4927 9.31984 16.2035 7.30438 16.0041C6.61183 15.9354 6.06564 15.3892 5.99711 14.6966C5.79769 12.6813 6.50831 10.6491 7.4952 8.88404Z" fill="#A3A3A3"/>
</svg>
