<svg width="22" height="22" viewBox="0 0 22 22" fill="none" xmlns="http://www.w3.org/2000/svg">
<path fill-rule="evenodd" clip-rule="evenodd" d="M2.88681 2.88681C4.81223 0.96137 7.59075 0 11 0C14.4092 0 17.1878 0.96137 19.1131 2.88681C21.0386 4.81223 22 7.59075 22 11C22 14.4092 21.0386 17.1878 19.1131 19.1131C17.1878 21.0386 14.4092 22 11 22C7.59075 22 4.81223 21.0386 2.88681 19.1131C0.96137 17.1878 0 14.4092 0 11C0 7.59075 0.96137 4.81223 2.88681 2.88681ZM16.1313 6.4722C16.3141 8.27145 15.702 10.143 14.7725 11.8483C14.5305 12.2923 13.9319 12.3602 13.5743 12.0027L9.99749 8.42567C9.63996 8.06812 9.70792 7.46955 10.1519 7.22755C11.8572 6.29803 13.7287 5.68595 15.5279 5.86877C15.8477 5.90125 16.0988 6.15247 16.1313 6.4722ZM5.86911 15.5278C5.6864 13.7286 6.29843 11.8571 7.22794 10.1517C7.46994 9.70775 8.06855 9.63979 8.42609 9.99735L12.0029 13.5744C12.3605 13.9319 12.2925 14.5305 11.8485 14.7725C10.1432 15.702 8.2717 16.3141 6.47251 16.1313C6.15279 16.0988 5.90158 15.8475 5.86911 15.5278Z" fill="white"/>
</svg>
