<svg width="12" height="10" viewBox="0 0 12 10" fill="none" xmlns="http://www.w3.org/2000/svg">
<path fill-rule="evenodd" clip-rule="evenodd" d="M1.76601 1.90467C2.81536 0.912814 4.30859 0 6 0C7.69141 0 9.18463 0.912814 10.234 1.90467C10.7628 2.40453 11.1939 2.93813 11.4959 3.41601C11.6468 3.65483 11.7692 3.88557 11.8551 4.09625C11.9379 4.29916 12 4.51493 12 4.71429C12 4.91364 11.9379 5.12941 11.8551 5.33232C11.7692 5.54301 11.6468 5.77374 11.4959 6.01256C11.1939 6.49044 10.7628 7.02403 10.234 7.52391C9.18463 8.5158 7.69141 9.42857 6 9.42857C4.30859 9.42857 2.81536 8.5158 1.76601 7.52391C1.23717 7.02403 0.806043 6.49044 0.504093 6.01256C0.353194 5.77374 0.230865 5.54301 0.144933 5.33232C0.0621673 5.12941 0 4.91364 0 4.71429C0 4.51493 0.0621673 4.29916 0.144933 4.09625C0.230865 3.88557 0.353194 3.65483 0.504093 3.41601C0.806043 2.93813 1.23717 2.40453 1.76601 1.90467ZM4.5799 3.29419C4.92234 2.95176 5.41198 2.78571 6 2.78571C6.58802 2.78571 7.07766 2.95176 7.4201 3.29419C7.76253 3.63663 7.92857 4.12627 7.92857 4.71429C7.92857 5.3023 7.76253 5.79195 7.4201 6.13438C7.07766 6.47681 6.58802 6.64286 6 6.64286C5.41198 6.64286 4.92234 6.47681 4.5799 6.13438C4.23747 5.79195 4.07143 5.3023 4.07143 4.71429C4.07143 4.12627 4.23747 3.63663 4.5799 3.29419Z" fill="#A3A3A3"/>
</svg>
