<svg width="12" height="12" viewBox="0 0 12 12" fill="none" xmlns="http://www.w3.org/2000/svg">
<g clip-path="url(#clip0_1_567)">
<path fill-rule="evenodd" clip-rule="evenodd" d="M4.71428 0.214294C3.86359 0.214294 3.03604 0.30214 2.25452 0.39202C1.27522 0.504641 0.491829 1.28675 0.383011 2.26841C0.296715 3.04688 0.214285 3.86913 0.214285 4.7143C0.214285 5.55949 0.296715 6.38174 0.383011 7.1602C0.474187 7.98271 1.03893 8.66512 1.79568 8.93101C1.74875 8.40567 1.71428 7.85268 1.71428 7.28571C1.71428 6.37631 1.80294 5.50292 1.88954 4.72176C2.05368 3.24099 3.23033 2.06843 4.70353 1.89901C5.48572 1.80905 6.3675 1.71427 7.28571 1.71427C7.8557 1.71427 8.41164 1.75079 8.93846 1.80001C8.67231 1.04644 7.99144 0.486022 7.17405 0.39202C6.39253 0.30214 5.56498 0.214294 4.71428 0.214294ZM7.28571 2.7857C6.43502 2.7857 5.60747 2.87355 4.82594 2.96343C3.84665 3.07605 3.06326 3.85815 2.95444 4.83981C2.86814 5.61828 2.78571 6.44053 2.78571 7.28571C2.78571 8.13089 2.86814 8.95312 2.95444 9.73158C3.06326 10.7133 3.84665 11.4954 4.82594 11.608C5.60747 11.6979 6.43502 11.7857 7.28571 11.7857C8.13641 11.7857 8.96391 11.6979 9.74546 11.608C10.7247 11.4954 11.5082 10.7133 11.617 9.73158C11.7033 8.95312 11.7857 8.13089 11.7857 7.28571C11.7857 6.44053 11.7033 5.61828 11.617 4.83981C11.5082 3.85815 10.7247 3.07605 9.74546 2.96343C8.96391 2.87355 8.13641 2.7857 7.28571 2.7857ZM7.92062 5.09789C8.13555 4.88295 8.4377 4.78441 8.78571 4.78441C9.13371 4.78441 9.43586 4.88295 9.65083 5.09789C9.86571 5.31282 9.96428 5.61497 9.96428 5.96298C9.96428 6.311 9.86571 6.61314 9.65083 6.82808C9.43586 7.04301 9.13371 7.14155 8.78571 7.14155C8.4377 7.14155 8.13555 7.04301 7.92062 6.82808C7.70569 6.61314 7.60714 6.311 7.60714 5.96298C7.60714 5.61497 7.70569 5.31282 7.92062 5.09789ZM5.4458 7.14155C6.75386 7.14155 8.01359 8.94352 8.76831 10.4198C8.27254 10.4671 7.7806 10.5 7.28569 10.5C6.51602 10.5 5.75354 10.4205 4.97281 10.3307C4.58622 10.2862 4.27472 9.97269 4.2323 9.58998C4.16324 8.96692 4.10126 8.3532 4.07959 7.73752C4.51479 7.37282 4.9772 7.14155 5.4458 7.14155Z" fill="#A3A3A3"/>
</g>
<defs>
<clipPath id="clip0_1_567">
<rect width="12" height="12" fill="white"/>
</clipPath>
</defs>
</svg>
