<svg width="28" height="28" viewBox="0 0 28 28" fill="none" xmlns="http://www.w3.org/2000/svg">
<g clip-path="url(#clip0_1_492)">
<path fill-rule="evenodd" clip-rule="evenodd" d="M27.9998 9.80246C27.9512 6.57296 26.0858 3.40718 23.238 2.10674C21.793 1.44685 20.119 1.28273 18.3717 1.82635C16.9022 2.28352 15.4258 3.22618 14 4.71626C12.5742 3.22618 11.0977 2.28354 9.62828 1.8264C7.88092 1.28281 6.20694 1.44699 4.76192 2.10692C1.91421 3.40746 0.0488238 6.57332 0.000113726 9.80282L0 9.8179C0 14.522 2.85398 18.6866 5.8726 21.6072C7.3969 23.082 9.0054 24.282 10.4075 25.1192C11.1082 25.5376 11.7706 25.8734 12.3564 26.1076C12.9176 26.3322 13.4963 26.4998 14 26.4998C14.5037 26.4998 15.0824 26.332 15.6435 26.1076C16.2294 25.8734 16.8918 25.5376 17.5925 25.1192C18.9946 24.2818 20.603 23.082 22.1274 21.607C25.146 18.6864 28 14.5217 28 9.81754L27.9998 9.80246Z" fill="white"/>
</g>
<defs>
<clipPath id="clip0_1_492">
<rect width="28" height="28" fill="white"/>
</clipPath>
</defs>
</svg>
