<svg width="26" height="22" viewBox="0 0 26 22" fill="none" xmlns="http://www.w3.org/2000/svg">
<path fill-rule="evenodd" clip-rule="evenodd" d="M11.2155 0.537975C12.2781 -0.179329 13.7221 -0.179327 14.7847 0.537994L16.017 1.36996C19.6586 3.82837 22.7849 6.84809 25.2454 10.2912L25.6406 10.8445C26.1244 11.5214 26.0903 12.3362 25.7131 12.9463C25.3439 13.5434 24.669 13.9253 23.9042 13.9253H22.8503C22.9058 15.6269 22.8085 17.6689 22.5537 19.1389C22.2538 20.8699 20.6323 22 18.9063 22H7.09388C5.36781 22 3.74638 20.8699 3.44645 19.1389C3.19176 17.6689 3.09441 15.6269 3.14984 13.9253H2.09575C1.33096 13.9253 0.656056 13.5434 0.286854 12.9463C-0.0904074 12.3362 -0.124525 11.5214 0.35922 10.8444L0.754635 10.2911C3.21505 6.84805 6.34134 3.82839 9.98296 1.37005L11.2155 0.537975ZM13.4742 2.42964C13.2017 2.24567 12.7984 2.24567 12.5259 2.42964L11.2933 3.2617C7.87148 5.5717 4.94654 8.40055 2.65157 11.6121L2.6362 11.6336H4.38063C4.70684 11.6336 5.01798 11.7691 5.23789 12.0069C5.45781 12.2448 5.56621 12.563 5.53653 12.8836C5.38207 14.5535 5.45133 17.1175 5.73465 18.7526C5.81522 19.2175 6.31995 19.7083 7.09388 19.7083H9.43852V15.281C9.43852 13.3394 11.033 11.7654 12.9998 11.7654C14.9666 11.7654 16.5611 13.3394 16.5611 15.281V19.7083H18.9063C19.6801 19.7083 20.1849 19.2175 20.2655 18.7526C20.5489 17.1175 20.6182 14.5535 20.4637 12.8836C20.434 12.563 20.5424 12.2448 20.7623 12.0069C20.9822 11.7691 21.2933 11.6336 21.6196 11.6336H23.3638L23.3484 11.6122C21.0535 8.40057 18.1285 5.57167 14.7066 3.26161L13.4742 2.42964Z" fill="#A3A3A3"/>
</svg>
