<svg width="26" height="22" viewBox="0 0 26 22" fill="none" xmlns="http://www.w3.org/2000/svg">
<path fill-rule="evenodd" clip-rule="evenodd" d="M11.3072 0.534891C12.3113 -0.178301 13.689 -0.178299 14.693 0.53491L15.9486 1.42675C19.6348 4.04516 22.7955 7.25859 25.2806 10.9179L25.6834 11.511C26.5507 12.7882 25.5076 14.3043 24.1092 14.3043H22.773C22.8468 15.9342 22.7504 17.5686 22.4843 19.1845C22.2116 20.8404 20.7091 22 19.0173 22H15.7856V16.099C15.7856 14.5802 14.5384 13.349 13 13.349C11.4616 13.349 10.2144 14.5802 10.2144 16.099V22H6.98287C5.29111 22 3.78865 20.8404 3.51598 19.1845C3.24988 17.5686 3.15359 15.9342 3.2273 14.3043H1.89077C0.492465 14.3043 -0.55075 12.7882 0.316668 11.511L0.71952 10.9178C3.20472 7.25853 6.36531 4.04518 10.0515 1.42684L11.3072 0.534891Z" fill="white"/>
</svg>
