<svg width="22" height="22" viewBox="0 0 22 22" fill="none" xmlns="http://www.w3.org/2000/svg">
<path fill-rule="evenodd" clip-rule="evenodd" d="M10.9997 0C8.78039 0 6.56103 0.318092 4.41182 0.954332L4.39744 0.958708C3.17089 1.32268 1.96729 1.7903 0.799695 2.36156C0.310301 2.601 -9.92805e-06 3.09828 2.38232e-10 3.64312L2.76315e-05 5.46337C3.09098e-05 7.16868 0.551969 8.83451 1.57705 10.0889C2.38445 11.0768 3.44558 11.7576 4.62451 12.0054C4.66136 12.0131 4.69859 12.0187 4.73602 12.0222L4.76391 12.1506C5.26678 14.4525 6.93783 16.6069 9.43336 17.0063C9.49542 17.0164 9.55732 17.0256 9.61908 17.0344V18.999C8.8693 19.0487 8.1159 19.1387 7.3529 19.2695C6.60442 19.3976 6.10153 20.1083 6.22969 20.8568C6.35786 21.6053 7.06854 22.1081 7.81704 21.98C9.97068 21.6112 12.0181 21.6112 14.1718 21.98C14.9203 22.1081 15.6309 21.6053 15.7591 20.8568C15.8873 20.1083 15.3844 19.3976 14.6359 19.2695C13.8727 19.1387 13.1191 19.0487 12.3691 18.999V17.036C12.4346 17.0267 12.5002 17.0168 12.566 17.0063C15.0615 16.6069 16.7326 14.4525 17.2354 12.1506C17.2447 12.1078 17.2541 12.065 17.2632 12.0222C17.301 12.0188 17.3385 12.0131 17.3758 12.0053C18.5546 11.7576 19.6158 11.0768 20.4232 10.0888C21.4483 8.83448 22.0002 7.16865 22.0002 5.46335V3.64311C22.0002 3.09826 21.69 2.60098 21.2005 2.36154C19.9609 1.75507 18.6808 1.26541 17.3758 0.89256C15.2926 0.297387 13.1461 0 10.9997 0ZM18.2867 3.25267C18.2468 5.46557 18.0455 7.6492 17.6811 9.83681C18.1212 9.62074 18.5389 9.29032 18.9022 8.84585C19.6127 7.97635 20.0359 6.76161 20.0359 5.46332V3.98145C19.4614 3.71142 18.8776 3.46849 18.2867 3.25267ZM1.96429 3.98147C2.53861 3.71156 3.12202 3.46874 3.71269 3.25301C3.7526 5.46565 3.95387 7.64901 4.31819 9.83636C3.87841 9.62027 3.46101 9.29002 3.09804 8.84587C2.38746 7.97637 1.96432 6.76162 1.96432 5.46335L1.96429 3.98147ZM6.68292 11.7314C6.02036 8.69855 5.68497 5.70322 5.67009 2.64338C7.41716 2.19067 9.20837 1.96429 10.9997 1.96429C12.7909 1.96429 14.5822 2.19067 16.3292 2.64339C16.3144 5.70322 15.9789 8.69855 15.3164 11.7314C14.9314 13.4938 13.7274 14.8312 12.2555 15.0668C11.4026 15.2033 10.5967 15.2033 9.74383 15.0668C8.27194 14.8312 7.06796 13.4938 6.68292 11.7314Z" fill="#A3A3A3"/>
</svg>
