<svg width="22" height="22" viewBox="0 0 22 22" fill="none" xmlns="http://www.w3.org/2000/svg">
<path fill-rule="evenodd" clip-rule="evenodd" d="M2.35717 5.74763C2.35717 7.04608 2.76479 8.25022 3.43411 9.10198C3.924 9.72542 4.50694 10.1041 5.08736 10.2594H5.28567C4.89258 8.02453 4.66084 5.69891 4.58852 3.42271C3.83264 3.68062 3.08753 3.98536 2.35714 4.337L2.35717 5.74763ZM5.6171 12.6165C5.67804 12.6165 5.73791 12.6119 5.79636 12.603C6.3877 14.3902 7.75154 15.8457 9.56118 16.1354C9.64953 16.1496 9.73751 16.1625 9.82517 16.1739C9.81879 16.2237 9.81547 16.2743 9.81547 16.3259V19.379C9.00757 19.4252 8.19596 19.5187 7.37299 19.6597C6.73142 19.7695 6.30038 20.3786 6.41023 21.0202C6.52009 21.6618 7.12924 22.0929 7.77081 21.983C9.95502 21.609 12.0331 21.609 14.2173 21.983C14.8588 22.0929 15.468 21.6618 15.5779 21.0202C15.6877 20.3786 15.2567 19.7695 14.6151 19.6597C13.7921 19.5187 12.9805 19.4252 12.1726 19.379V16.3259C12.1726 16.275 12.1694 16.2247 12.1631 16.1755C12.2546 16.1636 12.3464 16.1502 12.4387 16.1354C14.2483 15.8457 15.6121 14.3902 16.2035 12.6029C16.2619 12.6119 16.322 12.6165 16.3829 12.6165H17.0525C17.1371 12.6165 17.2214 12.6074 17.3041 12.5893C18.5237 12.3228 19.6055 11.5941 20.4193 10.5584C21.4516 9.24462 22 7.5117 22 5.74767V3.89172C22 3.29305 21.672 2.71926 21.1117 2.43413C19.9169 1.82625 18.684 1.33214 17.4268 0.951879C15.3295 0.31751 13.1651 0 11.0001 0C7.53737 0 4.07605 0.812143 0.88839 2.43413C0.327992 2.71926 -1.03963e-05 3.29307 2.47145e-10 3.89172L2.71632e-05 5.74767C3.07225e-05 7.5117 0.548378 9.24462 1.5807 10.5584C2.39457 11.5941 3.47633 12.3228 4.69592 12.5893C4.77857 12.6074 4.86294 12.6165 4.94755 12.6165H5.6171ZM16.9127 10.2594H16.7142C17.1072 8.0245 17.339 5.69886 17.4113 3.42265C18.1673 3.68057 18.9125 3.98535 19.6429 4.337V5.74763C19.6429 7.0461 19.2352 8.25022 18.566 9.10198C18.076 9.72542 17.493 10.1041 16.9127 10.2594Z" fill="white"/>
</svg>
