<svg width="12" height="12" viewBox="0 0 12 12" fill="none" xmlns="http://www.w3.org/2000/svg">
<path fill-rule="evenodd" clip-rule="evenodd" d="M1.28573 3.13507C1.28573 3.84332 1.50807 4.50012 1.87315 4.96472C2.14036 5.30477 2.45833 5.51131 2.77492 5.59602H2.88309C2.66868 4.37702 2.54228 3.1085 2.50283 1.86693C2.09053 2.00761 1.68411 2.17383 1.28571 2.36564L1.28573 3.13507ZM3.06387 6.88173C3.09711 6.88173 3.12977 6.87921 3.16165 6.87435C3.4842 7.84922 4.22811 8.64308 5.21519 8.80114C5.26338 8.80886 5.31137 8.81588 5.35918 8.82214C5.3557 8.84931 5.35389 8.87691 5.35389 8.90503V10.5704C4.91322 10.5956 4.47052 10.6466 4.02163 10.7235C3.67168 10.7834 3.43657 11.1156 3.49649 11.4656C3.55641 11.8155 3.88868 12.0507 4.23862 11.9907C5.43001 11.7867 6.5635 11.7867 7.75488 11.9907C8.10483 12.0507 8.4371 11.8155 8.49701 11.4656C8.55693 11.1156 8.32183 10.7834 7.97187 10.7235C7.52299 10.6466 7.08028 10.5956 6.63961 10.5704V8.90503C6.63961 8.87726 6.63785 8.84983 6.63443 8.823C6.68433 8.81649 6.73442 8.8092 6.78472 8.80114C7.77181 8.64308 8.51571 7.84921 8.83826 6.87433C8.87014 6.87921 8.90289 6.88173 8.93614 6.88173H9.30137C9.34749 6.88173 9.39351 6.87676 9.4386 6.86691C10.1038 6.72153 10.6939 6.32405 11.1378 5.75911C11.7009 5.04252 12 4.09729 12 3.13509V2.12276C12 1.79621 11.8211 1.48323 11.5155 1.32771C10.8638 0.996137 10.1913 0.72662 9.50554 0.519207C8.36155 0.173187 7.18098 0 6.00008 0C4.11129 0 2.2233 0.442987 0.484576 1.32771C0.178905 1.48323 -5.67072e-06 1.79622 1.34806e-10 2.12276L1.48163e-05 3.13509C1.67577e-05 4.09729 0.299115 5.04252 0.8622 5.75911C1.30613 6.32405 1.89618 6.72153 2.56141 6.86691C2.60649 6.87676 2.65251 6.88173 2.69866 6.88173H3.06387ZM9.22509 5.59602H9.11683C9.3312 4.377 9.45763 3.10847 9.49706 1.8669C9.90943 2.00758 10.3159 2.17383 10.7143 2.36564V3.13507C10.7143 3.84333 10.4919 4.50012 10.1269 4.96472C9.85963 5.30477 9.54163 5.51131 9.22509 5.59602Z" fill="url(#paint0_linear_1_1903)"/>
<defs>
<linearGradient id="paint0_linear_1_1903" x1="12" y1="6.00003" x2="0" y2="6.00003" gradientUnits="userSpaceOnUse">
<stop stop-color="#D9107F"/>
<stop offset="0.293269" stop-color="#EE1E03"/>
<stop offset="0.572115" stop-color="#F61785"/>
<stop offset="1" stop-color="#FC7C20"/>
</linearGradient>
</defs>
</svg>
