<svg width="14" height="14" viewBox="0 0 14 14" fill="none" xmlns="http://www.w3.org/2000/svg">
<path fill-rule="evenodd" clip-rule="evenodd" d="M6.62378 0.629501L4.0061 4.6747C4.02366 4.79771 4.03275 4.92345 4.03275 5.05132V11.9076C5.38999 12.3094 7.79394 13 10.1795 13C12.2825 13 13.9999 8.47732 13.9999 6.5C13.9999 4.52268 12.0225 3.53402 11.0339 3.53402H9.04337L9.30189 1.68589C9.42648 0.79519 8.73477 0 7.8354 0C7.35311 0 6.90104 0.234875 6.62378 0.629501ZM2.78281 5.0514V12.1086C2.78281 12.877 2.15985 13.5 1.3914 13.5C0.622952 13.5 0 12.877 0 12.1086V5.0514C0 4.28295 0.622952 3.66 1.3914 3.66C2.15985 3.66 2.78281 4.28295 2.78281 5.0514Z" fill="white"/>
</svg>
