<svg width="12" height="12" viewBox="0 0 12 12" fill="none" xmlns="http://www.w3.org/2000/svg">
<g clip-path="url(#clip0_1_521)">
<path fill-rule="evenodd" clip-rule="evenodd" d="M3.70747 0.949809C4.31562 0.341656 5.14045 0 6.00051 0C6.86057 0 7.6854 0.341656 8.29356 0.949809C8.90167 1.55796 9.24333 2.3828 9.24333 3.24285V3.98265C10.2018 4.38706 10.9145 5.2844 11.0436 6.36192C11.1015 6.84535 11.1437 7.34553 11.1437 7.85712C11.1437 8.36871 11.1015 8.86886 11.0436 9.35229C10.8714 10.7897 9.66059 11.9065 8.21341 11.9602C7.50697 11.9864 6.78316 12 5.99999 12C5.21682 12 4.493 11.9864 3.78656 11.9602C2.33938 11.9065 1.12855 10.7897 0.956379 9.35229C0.89847 8.86886 0.856293 8.36871 0.856293 7.85712C0.856293 7.34553 0.89847 6.84535 0.956379 6.36192C1.08549 5.284 1.7987 4.3864 2.75766 3.98221V3.24285C2.75766 2.3828 3.09932 1.55796 3.70747 0.949809ZM7.95765 3.24285V3.74514C7.33198 3.72477 6.68895 3.71427 5.99999 3.71427C5.31141 3.71427 4.66872 3.72475 4.04338 3.74511V3.24285C4.04338 2.72379 4.24957 2.22598 4.61661 1.85895C4.98364 1.49191 5.48145 1.28571 6.00051 1.28571C6.51958 1.28571 7.01738 1.49191 7.38442 1.85895C7.75146 2.22598 7.95765 2.72379 7.95765 3.24285ZM6.64284 7.33719C6.64284 6.98216 6.35502 6.69434 5.99999 6.69434C5.64495 6.69434 5.35713 6.98216 5.35713 7.33719V8.22856C5.35713 8.5836 5.64495 8.87143 5.99999 8.87143C6.35502 8.87143 6.64284 8.5836 6.64284 8.22856V7.33719Z" fill="black"/>
</g>
<defs>
<clipPath id="clip0_1_521">
<rect width="12" height="12" fill="white"/>
</clipPath>
</defs>
</svg>
