<svg width="120" height="20" viewBox="0 0 120 20" fill="none" xmlns="http://www.w3.org/2000/svg">
<path d="M3.86419 0C6.00562 3.84394 8.15468 7.68243 10.2976 11.5256C12.3765 8.42614 14.4486 5.32202 16.5282 2.22335C16.5374 2.22568 16.5572 2.23347 16.5656 2.23659C17.8376 8.04844 19.1021 13.8634 20.3703 19.6768C18.7848 19.6792 17.1986 19.6768 15.6123 19.6776C15.08 17.5796 14.5492 15.4817 14.0116 13.3853C12.6717 15.5549 11.3478 17.7338 10.0139 19.9073C8.64961 17.5695 7.28377 15.2325 5.9202 12.8939C5.43899 15.1538 4.96846 17.4169 4.48953 19.6776C2.99251 19.6768 1.49626 19.6784 0 19.6768C1.2873 13.1181 2.57307 6.55791 3.86419 0Z" fill="white"/>
<path d="M104.627 2.16263C106.846 1.84879 109.064 1.52639 111.283 1.21488C112.837 1.03343 114.455 1.2437 115.868 1.94925C117.097 2.55512 118.139 3.54259 118.831 4.74265C119.552 5.96685 119.897 7.38731 119.982 8.80464C120.04 10.1682 119.971 11.556 119.585 12.8713C119.209 14.217 118.541 15.4669 117.679 16.5517C116.95 17.4527 116.047 18.2136 115.017 18.7291C113.732 19.3833 112.286 19.6566 110.858 19.6691C108.786 19.6831 106.714 19.6839 104.643 19.6979C104.626 13.8533 104.624 8.00875 104.627 2.16263ZM109.335 5.36254C109.334 8.84436 109.335 12.327 109.335 15.8096C109.937 15.7831 110.543 15.7916 111.143 15.72C112.363 15.5635 113.491 14.8548 114.209 13.8393C115.139 12.5458 115.451 10.8816 115.341 9.30305C115.264 8.12868 114.847 6.92083 113.967 6.12183C113.059 5.28934 111.766 5.03235 110.58 5.17252C110.168 5.25507 109.751 5.31426 109.335 5.36254Z" fill="white"/>
<path d="M98.4502 2.80197C99.8267 2.65868 101.204 2.51851 102.582 2.37366C102.581 8.24236 102.582 14.1103 102.581 19.9782C98.8368 17.3538 95.097 14.7247 91.3525 12.1003C91.354 14.6258 91.3533 17.1506 91.3533 19.6761C89.9806 19.6776 88.6071 19.6768 87.2344 19.6761C87.2351 14.3673 87.2351 9.0585 87.2351 3.74894C90.9735 6.31027 94.7111 8.87394 98.4502 11.4345C98.4502 8.55698 98.4502 5.68026 98.4502 2.80197Z" fill="white"/>
<path d="M21.0155 2.85486C24.673 3.1539 28.3259 3.52693 31.9941 3.66554C31.9979 4.86716 31.9956 6.06956 31.9964 7.27196C29.8641 7.15126 27.7318 7.02821 25.5996 6.90829C25.5996 7.79529 25.5996 8.68073 25.5996 9.56774C27.4802 9.61368 29.3616 9.6534 31.2422 9.70091C31.2407 10.9796 31.2429 12.2576 31.2414 13.5363C29.3608 13.516 27.4809 13.5036 25.6003 13.4864C25.5996 14.347 25.6003 15.2075 25.6003 16.0688C27.7509 16.0735 29.9023 16.0688 32.0528 16.0711C32.0513 17.2728 32.0528 18.4752 32.0521 19.676C28.3732 19.6791 24.6943 19.6768 21.0155 19.6776C21.0147 14.0697 21.0139 8.46268 21.0155 2.85486Z" fill="white"/>
<path d="M36.5332 4.95841C37.7405 4.33074 39.0873 4.00366 40.4379 3.93747C42.4649 3.82377 44.543 4.06752 46.4236 4.87898C46.4236 6.25193 46.4236 7.62488 46.4236 8.99782C45.9508 8.72214 45.4894 8.41609 44.9731 8.22997C44.0938 7.90756 43.1543 7.80321 42.2254 7.77284C40.9519 7.71521 39.6241 7.97376 38.5466 8.69722C37.8114 9.18317 37.2676 9.96037 37.0701 10.8326C36.8642 11.7686 36.9504 12.7966 37.4362 13.6322C37.9982 14.6267 39.024 15.2684 40.0947 15.5448C41.0144 15.8088 41.9776 15.7364 42.9217 15.7528C42.9179 14.2739 42.9003 12.795 42.9095 11.3162C44.3684 11.317 45.828 11.3162 47.2869 11.317C47.2877 14.1033 47.2869 16.8905 47.2869 19.6769C45.5756 19.6808 43.8658 19.6847 42.1545 19.6863C41.3965 19.68 40.6384 19.7158 39.8827 19.6426C38.4039 19.5173 36.9382 19.05 35.7073 18.191C34.0944 17.0852 32.9154 15.326 32.5432 13.3737C32.0979 11.1565 32.6325 8.73382 34.0624 6.98941C34.7228 6.132 35.5922 5.45993 36.5332 4.95841Z" fill="white"/>
<path d="M81.0854 4.09003C82.4947 4.01683 83.904 3.9444 85.3133 3.87354C85.3111 9.14026 85.3133 14.4085 85.3126 19.6761C83.8987 19.6776 82.4848 19.6768 81.0709 19.6761C81.0846 14.481 81.0869 9.28589 81.0854 4.09003Z" fill="white"/>
<path d="M70.8152 12.9748C72.7118 10.0163 74.6107 7.06018 76.5066 4.10168C77.7916 9.2921 79.0804 14.4825 80.3647 19.6729C78.8799 19.6706 77.3951 19.6807 75.9102 19.676C75.4313 17.976 74.9554 16.2736 74.4773 14.5728C73.3288 16.3803 72.1848 18.1909 71.0371 20C69.7712 18.2579 68.5037 16.5182 67.2431 14.7738C66.9342 16.4068 66.6231 18.0399 66.3112 19.6729C64.8874 19.6729 63.4635 19.6729 62.039 19.6729C62.9099 14.576 63.7808 9.47977 64.6502 4.38359C65.0033 4.78699 65.2839 5.2558 65.6073 5.68567C67.3445 8.11461 69.0779 10.5459 70.8152 12.9748Z" fill="white"/>
<path d="M47.3334 19.6729C49.7768 14.5877 52.2088 9.49616 54.6645 4.41711C57.1003 9.50473 59.549 14.5861 61.9879 19.6729C60.4398 19.6792 58.8924 19.6807 57.3451 19.6893C57.1018 19.1621 56.8555 18.6364 56.6114 18.1108C55.2082 18.11 53.8065 18.1108 52.4033 18.11C52.192 18.6302 51.9922 19.1574 51.7757 19.6761C50.2939 19.6691 48.8136 19.6753 47.3334 19.6729ZM52.7495 14.8657C53.9247 14.8649 55.0999 14.8665 56.2743 14.8649C55.6879 13.4811 55.1022 12.098 54.5165 10.7141C53.9247 12.0972 53.3367 13.4811 52.7495 14.8657Z" fill="white"/>
</svg>
