<svg width="16" height="16" viewBox="0 0 16 16" fill="none" xmlns="http://www.w3.org/2000/svg">
<path fill-rule="evenodd" clip-rule="evenodd" d="M4.03421 0.437006C3.57631 -0.145669 2.70153 -0.145669 2.24363 0.437006C1.96885 0.786665 1.76458 1.19577 1.65066 1.65069C1.19574 1.76462 0.786659 1.96889 0.437006 2.24367C-0.145669 2.70157 -0.145669 3.57634 0.437006 4.03424C0.786665 4.30902 1.19577 4.51329 1.65069 4.62721C1.76462 5.08214 1.96888 5.49123 2.24367 5.84089C2.70157 6.42357 3.57634 6.42357 4.03424 5.84089C4.30902 5.49123 4.51329 5.08214 4.62721 4.62721C5.08213 4.51329 5.49121 4.30902 5.84087 4.03424C6.42354 3.57634 6.42354 2.70157 5.84087 2.24367C5.4912 1.96888 5.0821 1.76462 4.62718 1.65069C4.51326 1.19577 4.30898 0.786665 4.03421 0.437006ZM12.2729 2.2188C11.6549 1.43227 10.4768 1.43227 9.85867 2.2188C9.37958 2.82843 9.03573 3.55389 8.87092 4.36818C8.05662 4.53299 7.33122 4.87685 6.72159 5.35593C5.93506 5.97402 5.93506 7.15209 6.72159 7.77018C7.33122 8.24927 8.05667 8.59312 8.87097 8.75793C9.03578 9.57224 9.37963 10.2977 9.85873 10.9073C10.4768 11.6938 11.6549 11.6938 12.2729 10.9073C12.7521 10.2977 13.0959 9.57224 13.2607 8.75793C14.075 8.59312 14.8005 8.24927 15.4101 7.77018C16.1966 7.15209 16.1966 5.97403 15.4101 5.35593C14.8005 4.87685 14.075 4.53299 13.2607 4.36818C13.0959 3.55387 12.752 2.82843 12.2729 2.2188ZM3.05286 8.28381C3.59815 7.58992 4.63838 7.58992 5.18367 8.28381C5.56987 8.77525 5.85048 9.35662 5.99288 10.0071C6.64334 10.1495 7.22471 10.4301 7.71615 10.8163C8.41003 11.3616 8.41003 12.4018 7.71615 12.9471C7.22472 13.3333 6.64337 13.6139 5.99293 13.7563C5.85053 14.4067 5.56991 14.9881 5.18371 15.4795C4.63841 16.1735 3.59819 16.1735 3.0529 15.4795C2.6667 14.9881 2.38609 14.4067 2.24368 13.7563C1.59322 13.6139 1.01185 13.3333 0.52041 12.9471C-0.17347 12.4018 -0.17347 11.3616 0.52041 10.8163C1.01185 10.4301 1.59319 10.1495 2.24363 10.0071C2.38605 9.35662 2.66665 8.77525 3.05286 8.28381Z" fill="black"/>
</svg>
