<svg width="16" height="4" viewBox="0 0 16 4" fill="none" xmlns="http://www.w3.org/2000/svg">
<g opacity="0.8">
<path d="M1.84615 4C2.86576 4 3.69231 3.10457 3.69231 2C3.69231 0.895431 2.86576 0 1.84615 0C0.826551 0 0 0.895431 0 2C0 3.10457 0.826551 4 1.84615 4Z" fill="white"/>
<path d="M9.84615 2C9.84615 3.10457 9.0196 4 8 4C6.9804 4 6.15385 3.10457 6.15385 2C6.15385 0.895431 6.9804 0 8 0C9.0196 0 9.84615 0.895431 9.84615 2Z" fill="white"/>
<path d="M16 2C16 3.10457 15.1734 4 14.1538 4C13.1342 4 12.3077 3.10457 12.3077 2C12.3077 0.895431 13.1342 0 14.1538 0C15.1734 0 16 0.895431 16 2Z" fill="white"/>
</g>
</svg>
