<svg width="12" height="12" viewBox="0 0 12 12" fill="none" xmlns="http://www.w3.org/2000/svg">
<path fill-rule="evenodd" clip-rule="evenodd" d="M3.02868 0.199721C3.98322 0.0933244 4.97927 0 6 0C7.02073 0 8.01678 0.0933244 8.97129 0.199721C10.4575 0.365377 11.6516 1.55849 11.8109 3.04736C11.9125 3.99696 12 4.98635 12 6C12 7.01364 11.9125 8.00303 11.8109 8.95262C11.6516 10.4415 10.4575 11.6347 8.97129 11.8003C8.01678 11.9067 7.02073 12 6 12C4.97927 12 3.98322 11.9067 3.02868 11.8003C1.54251 11.6347 0.348363 10.4415 0.18907 8.95262C0.0874738 8.00303 0 7.01364 0 6C0 4.98635 0.0874738 3.99696 0.18907 3.04736C0.348362 1.55849 1.54251 0.365377 3.02868 0.199721ZM3.92129 8.08335C3.82196 7.43421 3.71169 6.58235 3.71169 6.00002C3.71169 5.41767 3.82201 4.56577 3.92137 3.91664C3.99865 3.41176 4.49588 3.08859 4.98148 3.24688C6.3914 3.70648 7.71383 4.43044 8.60645 5.54019C8.82302 5.80939 8.82293 6.19064 8.60642 6.45983C7.71373 7.56955 6.39134 8.29354 4.98141 8.75316C4.49579 8.91147 3.99854 8.58825 3.92129 8.08335Z" fill="#A3A3A3"/>
</svg>
