<svg width="22" height="28" viewBox="0 0 22 28" fill="none" xmlns="http://www.w3.org/2000/svg">
<path fill-rule="evenodd" clip-rule="evenodd" d="M4.09806 0.674224C6.14804 0.348184 8.33726 0 11 0C13.6627 0 15.852 0.348184 17.902 0.674226L18.2844 0.734934C20.1406 1.02866 21.6048 2.573 21.7134 4.501C22.1112 11.5542 22.0948 18.3303 21.6646 25.4058C21.5816 26.7706 20.475 28.1922 18.8006 27.9804C16.1824 27.649 13.5317 26.09 11 24.438C8.46834 26.09 5.81762 27.649 3.1994 27.9804C1.52508 28.1922 0.418423 26.7706 0.335423 25.4058C-0.0948772 18.3303 -0.111177 11.5542 0.286583 4.501C0.395303 2.573 1.85944 1.02866 3.7157 0.734934L4.09806 0.674224ZM11 6C11.8284 6 12.5 6.67158 12.5 7.5V11H16C16.8284 11 17.5 11.6716 17.5 12.5C17.5 13.3284 16.8284 14 16 14H12.5V17.5C12.5 18.3284 11.8284 19 11 19C10.1716 19 9.5 18.3284 9.5 17.5V14H6C5.17158 14 4.5 13.3284 4.5 12.5C4.5 11.6716 5.17158 11 6 11H9.5V7.5C9.5 6.67158 10.1716 6 11 6Z" fill="white"/>
</svg>
