<svg width="18" height="22" viewBox="0 0 18 22" fill="none" xmlns="http://www.w3.org/2000/svg">
<path fill-rule="evenodd" clip-rule="evenodd" d="M9.00001 0C6.8214 0 5.03022 0.273573 3.35296 0.529747L3.04012 0.577448C1.52136 0.808231 0.32343 2.02164 0.234477 3.5365C-0.0909631 9.07828 -0.0776268 14.4024 0.274437 19.9617C0.342346 21.034 1.2478 22.151 2.6177 21.9846C4.75988 21.7242 6.92865 20.4993 9.00001 19.2013C11.0714 20.4993 13.2401 21.7242 15.3823 21.9846C16.7523 22.151 17.6577 21.034 17.7256 19.9617C18.0776 14.4024 18.091 9.07828 17.7655 3.5365C17.6767 2.02164 16.4787 0.808231 14.96 0.577448L14.6471 0.529749C12.9698 0.273573 11.1786 0 9.00001 0Z" fill="white"/>
</svg>
