<svg width="18" height="22" viewBox="0 0 18 22" fill="none" xmlns="http://www.w3.org/2000/svg">
<path fill-rule="evenodd" clip-rule="evenodd" d="M3.47456 2.50894L3.7594 2.46529C5.40599 2.2126 7.02409 1.96429 9 1.96429C10.9759 1.96429 12.594 2.2126 14.2406 2.46529L14.5255 2.50894C15.1838 2.60959 15.6914 3.13912 15.7287 3.77839C16.0421 9.14516 16.0293 14.2986 15.6903 19.6832C15.6813 19.8273 15.6194 19.935 15.5613 19.9905C15.5343 20.0161 15.5126 20.0268 15.5005 20.031C15.4905 20.0345 15.4769 20.0376 15.452 20.0345C13.7027 19.8207 11.7817 18.7167 9.56579 17.3035C9.22296 17.0849 8.77705 17.0849 8.43421 17.3035C6.21836 18.7167 4.29726 19.8207 2.54803 20.0345C2.52313 20.0376 2.50946 20.0345 2.49955 20.031C2.48742 20.0268 2.46574 20.0161 2.43869 19.9905C2.38055 19.935 2.31878 19.8273 2.3097 19.6832C1.97071 14.2986 1.95789 9.14516 2.27119 3.77839C2.30852 3.13912 2.81612 2.60959 3.47456 2.50894ZM9 0C6.85709 0 5.09444 0.270847 3.46027 0.521955L3.15303 0.569083C1.56729 0.811468 0.321432 2.08414 0.228945 3.66844C-0.0888203 9.11172 -0.0757949 14.3415 0.267972 19.8019C0.339171 20.9327 1.2996 22.1672 2.80623 21.983C4.90751 21.7263 7.01853 20.5419 9 19.2981C10.9815 20.5419 13.0925 21.7263 15.1938 21.983C16.7004 22.1672 17.6608 20.9327 17.732 19.8019C18.0758 14.3415 18.0889 9.11172 17.7711 3.66844C17.6786 2.08414 16.4327 0.811468 14.8471 0.569083L14.5397 0.521955C12.9056 0.270847 11.1429 0 9 0Z" fill="#A3A3A3"/>
</svg>
