<svg width="20" height="20" viewBox="0 0 20 20" fill="none" xmlns="http://www.w3.org/2000/svg">
<path fill-rule="evenodd" clip-rule="evenodd" d="M1.85165 9.41068C1.85165 6.86593 2.5645 5.00858 3.78658 3.78652C5.00865 2.56447 6.86604 1.85162 9.41083 1.85162C11.9556 1.85162 13.813 2.56447 15.0351 3.78652C16.2572 5.00858 16.97 6.86593 16.97 9.41068C16.97 11.9554 16.2572 13.8128 15.0351 15.0349C13.813 16.257 11.9556 16.9698 9.41083 16.9698C6.86604 16.9698 5.00865 16.257 3.78658 15.0349C2.5645 13.8128 1.85165 11.9554 1.85165 9.41068ZM9.41083 0C6.5252 0 4.14008 0.814433 2.47727 2.47723C0.814444 4.14003 0 6.52512 0 9.41068C0 12.2962 0.814444 14.6813 2.47727 16.3441C4.14008 18.007 6.5252 18.8214 9.41083 18.8214C11.7621 18.8214 13.781 18.2806 15.3477 17.1809L17.7874 19.6204C18.2936 20.1266 19.1142 20.1266 19.6204 19.6203C20.1265 19.1141 20.1265 18.2935 19.6204 17.7873L17.1808 15.3479C18.2808 13.7812 18.8216 11.7621 18.8216 9.41068C18.8216 6.52512 18.0072 4.14003 16.3444 2.47723C14.6815 0.814433 12.2964 0 9.41083 0Z" fill="white"/>
<rect x="4" y="4" width="11" height="11" rx="4" fill="white"/>
</svg>