<svg width="62" height="37" viewBox="0 0 62 37" fill="none" xmlns="http://www.w3.org/2000/svg">
<path d="M3.53638 28.136C2.93904 28.136 2.43504 28.0133 2.02438 27.768C1.61371 27.5227 1.30971 27.1733 1.11238 26.72C0.920375 26.2987 0.824375 25.784 0.824375 25.176C0.824375 24.5787 0.920375 24.0613 1.11238 23.624C1.31504 23.176 1.61904 22.8293 2.02438 22.584C2.43504 22.3387 2.93638 22.216 3.52838 22.216C3.89638 22.216 4.23504 22.2693 4.54438 22.376C4.85371 22.4827 5.12038 22.64 5.34438 22.848C5.55238 23.0347 5.71504 23.2613 5.83238 23.528C5.94971 23.7947 6.01371 24.0853 6.02438 24.4H5.05638C5.03504 23.9947 4.89371 23.6693 4.63238 23.424C4.34438 23.168 3.96571 23.04 3.49638 23.04C3.13371 23.04 2.82704 23.1173 2.57638 23.272C2.32571 23.4213 2.13638 23.6347 2.00838 23.912C1.93904 24.0773 1.88571 24.264 1.84838 24.472C1.81638 24.6747 1.80038 24.9093 1.80038 25.176C1.80038 25.448 1.81638 25.688 1.84838 25.896C1.88038 26.0987 1.93371 26.28 2.00838 26.44C2.13638 26.7227 2.32571 26.9387 2.57638 27.088C2.82704 27.2373 3.13371 27.312 3.49638 27.312C3.73638 27.312 3.95504 27.28 4.15238 27.216C4.34971 27.1467 4.51771 27.0507 4.65638 26.928C4.91771 26.6933 5.05638 26.3627 5.07238 25.936H6.04038C6.03504 26.256 5.97371 26.5493 5.85638 26.816C5.74438 27.0827 5.58438 27.312 5.37638 27.504C5.15238 27.712 4.88304 27.8693 4.56838 27.976C4.25371 28.0827 3.90971 28.136 3.53638 28.136ZM9.9405 22.352H13.4205V23.144H10.8605V24.736H13.3965V25.536H10.8605V27.208H13.4205V28H9.9405V22.352ZM18.9259 25.592H18.2539V28H17.3339V22.352H19.5499C20.4459 22.352 21.0193 22.632 21.2699 23.192C21.3659 23.4 21.4139 23.6453 21.4139 23.928C21.4139 24.2267 21.3686 24.4827 21.2779 24.696C21.1606 24.9573 20.9926 25.16 20.7739 25.304C20.5553 25.448 20.2806 25.5387 19.9499 25.576L21.7899 28H20.7099L18.9259 25.592ZM18.2539 24.824H19.3099C19.6086 24.824 19.8459 24.7893 20.0219 24.72C20.1979 24.6507 20.3206 24.5413 20.3899 24.392C20.4486 24.264 20.4779 24.1173 20.4779 23.952C20.4779 23.7973 20.4539 23.6667 20.4059 23.56C20.3313 23.4 20.2033 23.288 20.0219 23.224C19.8459 23.1547 19.6086 23.12 19.3099 23.12H18.2539V24.824ZM26.2266 23.152H24.8346V22.352H28.5466V23.152H27.1466V28H26.2266V23.152ZM32.2068 22.352H33.1268V28H32.2068V22.352ZM37.2174 22.352H40.1454V23.152H38.1374V24.736H40.1294V25.544H38.1374V28H37.2174V22.352ZM44.0014 22.352H44.9214V28H44.0014V22.352ZM49.0121 22.352H52.4921V23.144H49.9321V24.736H52.4681V25.536H49.9321V27.208H52.4921V28H49.0121V22.352ZM56.4055 22.352H58.4775C59.0855 22.352 59.5922 22.4667 59.9975 22.696C60.4082 22.9253 60.7095 23.2587 60.9015 23.696C61.0828 24.096 61.1735 24.5893 61.1735 25.176C61.1735 25.48 61.1522 25.752 61.1095 25.992C61.0668 26.232 60.9975 26.4533 60.9015 26.656C60.7095 27.0933 60.4082 27.4267 59.9975 27.656C59.5922 27.8853 59.0855 28 58.4775 28H56.4055V22.352ZM58.3415 27.2C58.7735 27.2 59.1255 27.1253 59.3975 26.976C59.6748 26.8267 59.8775 26.6053 60.0055 26.312C60.0695 26.1627 60.1175 25.9973 60.1495 25.816C60.1815 25.6347 60.1975 25.4213 60.1975 25.176C60.1975 24.9307 60.1815 24.7173 60.1495 24.536C60.1175 24.3547 60.0695 24.1893 60.0055 24.04C59.8775 23.7467 59.6748 23.5253 59.3975 23.376C59.1255 23.2267 58.7735 23.152 58.3415 23.152H57.3255V27.2H58.3415Z" fill="white"/>
<path d="M41.2444 14.5242C41.2127 17.3392 43.9052 18.1151 46.5128 17.9867C46.6522 17.9798 48.7105 17.8394 48.7105 17.7129V15.1957C51.7241 19.0465 58.3298 18.755 60.9608 14.7139C59.8238 14.0683 56.9441 12.4255 56.9417 12.423C56.9417 12.4395 56.5784 12.8498 56.5554 12.8726C55.3068 14.1132 53.3131 13.6984 52.4867 12.2371H61.9193C62.5938 7.87607 58.9416 4.48751 54.6615 4.48751C49.6987 4.48751 45.5202 9.34113 48.0428 14.1619C46.3069 14.2289 46.3131 12.9143 46.3131 12.9143V0H41.2344L41.2431 13.4853H35.4645L41.1315 4.48688H31.1279C31.0672 8.04489 30.2606 9.2564 31.8626 10.6766C32.3015 11.0661 33.0535 11.644 33.542 11.9665C33.826 12.1796 33.6412 12.8163 33.3102 12.8549C32.0095 12.9219 30.6884 13.0806 29.914 13.7585C28.7584 14.8985 28.3815 16.2099 27.6171 17.9911H38.6827L41.2425 13.9779V14.5248L41.2444 14.5242ZM52.4383 9.78628C53.4079 7.75909 56.0421 8.09421 57.0216 9.78628H52.4383ZM12.0736 3.57445H17.1398V0.000632928H12.0736V3.57445ZM0.0693406 16.0063C1.58575 17.1331 3.56279 18.0209 6.14987 17.9873C8.74749 17.9873 11.0196 17.24 12.0729 15.5384V17.988C16.9136 17.9873 21.7616 17.9817 26.6078 17.9842L26.8434 15.4214C27.0244 12.7158 26.0709 11.7072 24.4714 10.6721C22.9358 9.7066 25.5669 9.53145 26.3834 9.36895C27.6066 9.14574 28.5198 8.13531 28.9668 7.04837L30.1192 4.48688H20.4014L17.5751 9.02497H22.5235L17.187 17.5264V4.48751H12.0767V11.6023C10.8659 9.61492 7.71216 9.6478 5.30611 8.7221C4.37308 8.31425 4.98745 7.60164 5.7624 7.57508C7.1201 7.58583 8.26764 8.15618 9.14364 8.7613C9.17526 8.74549 9.85659 7.76162 11.1703 5.83433V5.78817C7.96449 3.93234 -0.110447 3.53715 0.00114502 8.66835C0.00114502 12.0285 3.33341 12.6272 6.19761 13.0338C6.75309 13.092 7.43504 13.2558 7.43504 13.921C7.2875 14.4888 6.67684 14.5665 5.98621 14.5665C4.38982 14.5615 3.08667 13.7464 2.19207 12.9074C1.93417 12.9074 0.693637 15.085 0.0712004 15.95V16.0076L0.0693406 16.0063Z" fill="white"/>
</svg>
