<svg width="112" height="32" viewBox="0 0 112 32" fill="none" xmlns="http://www.w3.org/2000/svg">
<path d="M74.506 25.8208C74.4488 30.8253 79.3127 32.2046 84.023 31.9764C84.275 31.964 87.9932 31.7145 87.9932 31.4896V27.0146C93.4371 33.8604 105.37 33.3422 110.123 26.158C108.069 25.0103 102.867 22.0899 102.862 22.0854C102.862 22.1146 102.206 22.8441 102.165 22.8846C99.9091 25.0901 96.3075 24.3527 94.8146 21.7549H111.854C113.073 14.0019 106.475 7.97779 98.7433 7.97779C89.7783 7.97779 82.23 16.6065 86.787 25.1766C83.6512 25.2958 83.6624 22.9588 83.6624 22.9588V0H74.488L74.5037 23.9739H64.0649L74.3021 7.97667H56.2311C56.1213 14.302 54.6643 16.4558 57.5582 18.9806C58.3511 19.673 59.7096 20.7005 60.5921 21.2737C61.105 21.6526 60.7712 22.7845 60.1732 22.8531C57.8236 22.9723 55.437 23.2544 54.0383 24.4595C51.9507 26.4862 51.2698 28.8176 49.889 31.9842H69.8784L74.5026 24.8495V25.8219L74.506 25.8208ZM94.7273 17.3978C96.4788 13.7939 101.237 14.3897 103.007 17.3978H94.7273ZM21.8103 6.35458H30.9623V0.00112521H21.8103V6.35458ZM0.12526 28.4557C2.86459 30.4588 6.43602 32.0371 11.1094 31.9775C15.8019 31.9775 19.9064 30.6488 21.8092 27.6238V31.9786C30.5535 31.9775 39.3113 31.9674 48.0657 31.9719L48.4913 27.4159C48.8183 22.6058 47.0959 20.8129 44.2065 18.9727C41.4324 17.2562 46.1854 16.9448 47.6603 16.6559C49.8699 16.2591 51.5196 14.4628 52.327 12.5304L54.409 7.97667H36.8542L31.7485 16.0444H40.6877L31.0474 31.158V7.97779H21.8159V20.6263C19.6287 17.0932 13.9317 17.1516 9.58524 15.5059C7.89975 14.7809 9.00959 13.514 10.4095 13.4668C12.8621 13.4859 14.9351 14.4999 16.5175 15.5756C16.5747 15.5475 17.8055 13.7984 20.1786 10.3721V10.2901C14.3875 6.99083 -0.199517 6.28826 0.00206842 15.4104C0.00206842 21.3839 6.02165 22.4484 11.1957 23.1712C12.1991 23.2747 13.431 23.5658 13.431 24.7484C13.1645 25.7578 12.0614 25.8961 10.8138 25.8961C7.93 25.8871 5.57592 24.4381 3.95987 22.9464C3.49398 22.9464 1.25302 26.8178 0.12862 28.3556V28.4579L0.12526 28.4557Z" fill="white"/>
</svg>
