<svg width="20" height="20" viewBox="0 0 20 20" fill="none" xmlns="http://www.w3.org/2000/svg">
<path fill-rule="evenodd" clip-rule="evenodd" d="M4.86753 0.32098C6.4016 0.149986 8.0024 0 9.64286 0C11.2833 0 12.8841 0.149986 14.4181 0.32098C16.8067 0.587213 18.7259 2.50471 18.9819 4.89754C19.1451 6.42369 19.2857 8.01377 19.2857 9.64286C19.2857 11.2719 19.1451 12.862 18.9819 14.3881C18.7259 16.781 16.8067 18.6986 14.4181 18.9647C12.8841 19.1357 11.2833 19.2857 9.64286 19.2857C8.0024 19.2857 6.4016 19.1357 4.86753 18.9647C2.47903 18.6986 0.559869 16.781 0.303863 14.3881C0.140583 12.862 0 11.2719 0 9.64286C0 8.01377 0.140583 6.42369 0.303863 4.89754C0.559867 2.50471 2.47903 0.587213 4.86753 0.32098ZM10.7438 4.13807C10.1931 3.38249 9.0953 3.38276 8.54449 4.13763C8.00933 4.87103 7.62798 5.65778 7.36446 6.53926C6.50868 6.55614 5.6918 6.69064 4.87826 6.96488C3.9921 7.26361 3.66559 8.32136 4.16533 9.08093C4.66438 9.83947 5.263 10.4627 5.99566 10.9936C5.74743 11.844 5.62629 12.689 5.61769 13.5661C5.60873 14.4783 6.46394 15.2387 7.41434 14.9301C8.22496 14.6669 8.95401 14.2827 9.64198 13.7554C10.3306 14.283 11.0607 14.6671 11.8718 14.9303C12.8221 15.2386 13.6773 14.4784 13.6683 13.5661C13.6597 12.689 13.5386 11.844 13.2904 10.9936C14.023 10.4627 14.6216 9.83947 15.1207 9.08093C15.6204 8.32136 15.2939 7.26361 14.4077 6.96488C13.5942 6.69066 12.7774 6.55616 11.9217 6.53926C11.6586 5.65831 11.2785 4.87161 10.7438 4.13807Z" fill="#FBFF60"/>
</svg>
