<svg width="9" height="10" viewBox="0 0 9 10" fill="none" xmlns="http://www.w3.org/2000/svg">
<path fill-rule="evenodd" clip-rule="evenodd" d="M4.05871 0.80925C4.41049 0.369434 4.88198 0 5.47794 0C6.07389 0 6.54536 0.369437 6.89714 0.809257C7.25293 1.25406 7.53628 1.83074 7.755 2.38312C7.97536 2.93962 8.13843 3.49301 8.24614 3.90531C8.30014 4.11201 8.34064 4.28455 8.36764 4.40596C8.38121 4.46669 8.39143 4.5147 8.39828 4.54788L8.40614 4.58629L8.40821 4.59666L8.40893 4.60043L8.05171 4.6711C8.409 4.6009 8.40893 4.60053 8.40893 4.60043L8.40921 4.6018C8.7615 6.44219 8.61936 8.21107 7.18221 9.35757C6.67728 9.76036 6.0518 9.91743 5.4703 9.9625C3.80492 10.0916 2.45768 9.89629 1.50688 9.23886C0.533662 8.56586 0.0521266 7.46464 0.0011623 5.97318L0.0010052 5.96853C-0.0133619 5.30188 0.126469 4.64074 0.408384 4.05611C0.559527 3.74269 0.748877 3.45675 0.970555 3.20709C1.20222 2.94619 1.52291 2.88367 1.80388 2.95519C2.07381 3.02389 2.31186 3.21368 2.45276 3.46749C2.53342 3.61278 2.6211 3.75191 2.71526 3.88421C2.82301 3.47424 2.98426 2.93017 3.20087 2.3831C3.41958 1.83073 3.70293 1.25405 4.05871 0.80925ZM3.80407 5.47277C3.97418 5.29804 4.19008 5.1627 4.44978 5.1627C4.70991 5.1627 4.92401 5.29845 5.09134 5.47388C5.25854 5.64916 5.39216 5.87703 5.49541 6.09568C5.59932 6.31571 5.67618 6.53446 5.72696 6.69739C5.75241 6.7791 5.77149 6.84733 5.78427 6.89539C5.79066 6.91944 5.79548 6.93846 5.79874 6.95166L5.80247 6.96696L5.80346 6.97114L5.80374 6.97232L5.65763 7.00673C5.80388 6.97289 5.80376 6.97237 5.80374 6.97232L5.80398 6.97332C5.88696 7.33686 5.91393 7.67479 5.83008 7.97278C5.74413 8.27829 5.54663 8.52493 5.217 8.71021C4.69913 9.00136 4.16698 9.00136 3.64911 8.71021C3.31948 8.52493 3.12198 8.27829 3.03603 7.97278C2.95218 7.67479 2.97916 7.33686 3.06214 6.97332L3.06286 6.97016L3.08107 6.97476L3.20803 7.00662L3.06286 6.97016L3.06333 6.96842L3.06441 6.96425L3.06843 6.94896C3.07196 6.93579 3.07716 6.91676 3.08401 6.89274C3.09773 6.84469 3.11815 6.7765 3.14521 6.69484C3.19918 6.53197 3.28031 6.31336 3.38848 6.09351C3.49598 5.87499 3.63387 5.64757 3.80407 5.47277Z" fill="white"/>
</svg>
