<svg width="14" height="14" viewBox="0 0 14 14" fill="none" xmlns="http://www.w3.org/2000/svg">
<path fill-rule="evenodd" clip-rule="evenodd" d="M1.83645 1.83645C3.06046 0.612432 4.82797 0 7 0C9.17203 0 10.9395 0.612432 12.1636 1.83645C13.3876 3.06046 14 4.82797 14 7C14 9.17203 13.3876 10.9395 12.1636 12.1636C10.9395 13.3876 9.17203 14 7 14C4.82797 14 3.06046 13.3876 1.83645 12.1636C0.612432 10.9395 0 9.17203 0 7C0 4.82797 0.612432 3.06046 1.83645 1.83645ZM7.625 3C7.625 2.65482 7.34518 2.375 7 2.375C6.65482 2.375 6.375 2.65482 6.375 3V3.21664C5.84698 3.29071 5.39208 3.46462 5.03515 3.74542C4.52758 4.14471 4.28191 4.71153 4.28191 5.32005C4.28191 6.49075 5.4175 7.24529 6.91186 7.45877C7.5916 7.55587 8.09089 7.70792 8.40533 7.90638C8.68612 8.0836 8.78858 8.27093 8.78858 8.52325C8.78858 8.73373 8.67619 8.97949 8.37487 9.19542C8.07223 9.41228 7.6019 9.57505 7.00025 9.57505C6.37872 9.57505 5.89969 9.43119 5.59745 9.23859C5.30045 9.04933 5.21191 8.8464 5.21191 8.68005C5.21191 8.33487 4.93209 8.05505 4.58691 8.05505C4.24174 8.05505 3.96191 8.33487 3.96191 8.68005C3.96191 9.38203 4.37071 9.9391 4.92571 10.2928C5.32779 10.549 5.82502 10.7151 6.375 10.7859V11C6.375 11.3452 6.65482 11.625 7 11.625C7.34518 11.625 7.625 11.3452 7.625 11V10.7804C8.19093 10.6976 8.6978 10.5018 9.10296 10.2115C9.65364 9.81687 10.0386 9.22423 10.0386 8.52325C10.0386 7.76276 9.6437 7.20983 9.07249 6.84931C8.53494 6.51004 7.82756 6.32689 7.08864 6.22133C5.74566 6.02948 5.53191 5.49355 5.53191 5.32005C5.53191 5.06613 5.62358 4.87294 5.80802 4.72785C6.00579 4.57226 6.36758 4.42951 6.9717 4.42515C6.98108 4.42557 6.99052 4.42578 7 4.42578C7.00946 4.42578 7.01888 4.42557 7.02824 4.42515C7.62427 4.42968 7.98701 4.57845 8.18808 4.73958C8.38123 4.89436 8.46858 5.09254 8.46858 5.32005C8.46858 5.66523 8.7484 5.94505 9.09358 5.94505C9.43876 5.94505 9.71858 5.66523 9.71858 5.32005C9.71858 4.72571 9.4686 4.16389 8.96975 3.76414C8.61399 3.47905 8.15829 3.29647 7.625 3.21851V3Z" fill="white"/>
</svg>
