<svg width="16" height="16" viewBox="0 0 16 16" fill="none" xmlns="http://www.w3.org/2000/svg">
<path fill-rule="evenodd" clip-rule="evenodd" d="M8 16C13.12 16 16 13.12 16 8C16 2.88 13.12 0 8 0C2.88 0 0 2.88 0 8C0 13.12 2.88 16 8 16ZM12.1561 13.1758C11.8651 12.6336 11.4687 12.1497 10.9853 11.7547C10.1429 11.0661 9.08819 10.6899 8.00009 10.6899C6.91198 10.6899 5.85733 11.0661 5.01483 11.7547C4.53152 12.1497 4.13509 12.6336 3.84402 13.1758C4.79534 13.8595 6.14819 14.2857 8.00011 14.2857C9.85201 14.2857 11.2049 13.8595 12.1561 13.1758ZM10.6915 6.02147C10.6915 7.74456 9.72231 8.71378 7.99922 8.71378C6.27615 8.71378 5.30691 7.74456 5.30691 6.02147C5.30691 4.2984 6.27615 3.32917 7.99922 3.32917C9.72231 3.32917 10.6915 4.2984 10.6915 6.02147Z" fill="black"/>
</svg>
