<svg width="16" height="16" viewBox="0 0 16 16" fill="none" xmlns="http://www.w3.org/2000/svg">
<path d="M10.8925 8.71875C11.3313 7.89045 12.4758 7.89096 12.9136 8.71986C13.1553 9.17722 13.3377 9.66826 13.4717 10.2098C14.0044 10.1909 14.5117 10.2205 15.0075 10.3036C15.9482 10.4613 16.3318 11.5602 15.6637 12.241C15.3111 12.6002 14.908 12.9135 14.4416 13.1953C14.6166 13.6729 14.7383 14.1451 14.811 14.6216C14.9579 15.5875 14.0046 16.3089 13.1335 15.8661C12.7037 15.6475 12.297 15.3759 11.9014 15.0413C11.5061 15.3755 11.1005 15.6477 10.6715 15.8661C9.80071 16.3091 8.84714 15.5875 8.99402 14.6216C9.0667 14.1451 9.18842 13.6729 9.36344 13.1953C8.89695 12.9135 8.49388 12.6002 8.14135 12.241C7.4732 11.5602 7.8568 10.4613 8.7976 10.3036C9.2935 10.2204 9.8015 10.1908 10.3344 10.2098C10.4684 9.66813 10.6502 9.17621 10.8925 8.71875ZM5.82884 8.17299C6.99674 8.17299 8.11197 8.40219 9.13241 8.81585C8.94139 8.83461 8.75093 8.85878 8.56098 8.89063C6.54464 9.22873 5.59914 11.6866 7.12126 13.2377C7.2188 13.3371 7.31974 13.4326 7.42259 13.5257H2.54983C1.4741 13.5254 0.58136 12.9477 0.197147 12.1473C0.0037611 11.7441 -0.0609048 11.2777 0.0643348 10.8192C0.190692 10.3578 0.496863 9.95038 0.958308 9.64286C2.35287 8.71415 4.02896 8.17314 5.82884 8.17299ZM5.83107 0C6.88679 4.35555e-05 7.7926 0.299019 8.43376 0.939733C9.07498 1.58097 9.3746 2.48735 9.3746 3.54353C9.37456 4.59962 9.07495 5.50501 8.43376 6.14621C7.79258 6.78715 6.88697 7.08701 5.83107 7.08705C4.77519 7.08693 3.86838 6.78729 3.22728 6.14621C2.58657 5.50505 2.28759 4.59925 2.28755 3.54353C2.28755 2.48753 2.58628 1.58095 3.22728 0.939733C3.86838 0.298641 4.77519 0.000130232 5.83107 0Z" fill="#A3A3A3"/>
</svg>
